<svg xmlns="http://www.w3.org/2000/svg" width="18" height="18" viewBox="0 0 18 18">
  <g fill="none" fill-rule="evenodd">
    <path fill="#4285F4" d="M17.64 9.2045c0-.6381-.0573-1.2518-.1636-1.8409H9v3.4814h4.8436c-.2086 1.125-.8427 2.0782-1.7959 2.7164v2.2581h2.9087c1.7018-1.5668 2.6836-3.874 2.6836-6.615z"/>
    <path fill="#34A853" d="M9 18c2.43 0 4.4673-.806 5.9564-2.1805l-2.9087-2.2581c-.8059.54-1.8368.859-3.0477.859-2.344 0-4.3282-1.5831-5.036-3.7104H.9574v2.3318C2.4382 15.9832 5.4818 18 9 18z"/>
    <path fill="#FBBC05" d="M3.964 10.71c-.18-.54-.2822-1.1168-.2822-1.71s.1023-1.17.2823-1.71V4.9582H.9573A8.9965 8.9965 0 0 0 0 9c0 1.4523.3477 2.8268.9573 4.0418L3.964 10.71z"/>
    <path fill="#EA4335" d="M9 3.5795c1.3214 0 2.5077.4541 3.4405 1.346l2.5813-2.5814C13.4632.8918 11.426 0 9 0 5.4818 0 2.4382 2.0168.9573 4.9582L3.964 7.29C4.6718 5.1627 6.6559 3.5795 9 3.5795z"/>
  </g>
</svg>
<svg xmlns="http://www.w3.org/2000/svg" width="18" height="18" viewBox="0 0 18 18">
  <g fill="none" fill-rule="evenodd">
    <path fill="#1B6B6B" d="M17.64 9.2045c0-.6381-.0573-1.2518-.1636-1.8409H9v3.4814h4.8436c-.2086 1.125-.8427 2.0782-1.7959 2.7164v2.2581h2.9087c1.7018-1.5668 2.6836-3.874 2.6836-6.615z"/>
    <path fill="#1B6B6B" d="M9 18c2.43 0 4.4673-.806 5.9564-2.1805l-2.9087-2.2581c-.8059.54-1.8368.859-3.0477.859-2.344 0-4.3282-1.5831-5.036-3.7104H.9574v2.3318C2.4382 15.9832 5.4818 18 9 18z"/>
    <path fill="#FBBC05" d="M3.964 10.71c-.18-.54-.2822-1.1168-.2822-1.71s.1023-1.17.2823-1.71V4.9582H.9573A8.9965 8.9965 0 0 0 0 9c0 1.4523.3477 2.8268.9573 4.0418L3.964 10.71z"/>
    <path fill="#EA4335" d="M9 3.5795c1.3214 0 2.5077.4541 3.4405 1.346l2.5813-2.5814C13.4632.8918 11.426 0 9 0 5.4818 0 2.4382 2.0168.9573 4.9582L3.964 7.29C4.6718 5.1627 6.6559 3.5795 9 3.5795z"/>
  </g>
</svg>
<svg xmlns="http://www.w3.org/2000/svg" viewBox="0 0 48 48" width="48" height="48">
  <path fill="#1B6B6B" d="M24 9.5c3.54 0 6.71 1.22 9.21 3.6l6.85-6.85C35.9 2.38 30.47 0 24 0 14.62 0 6.51 5.38 2.56 13.22l7.98 6.19C12.43 13.72 17.74 9.5 24 9.5z"/>
  <path fill="#EA4335" d="M35.2 14.38C34.17 13.35 32.48 12.5 30.5 12.5c-2.5 0-4.62 1.34-5.75 3.32l-7.98-6.19C19.21 5.14 23.27 2.5 28 2.5c3.72 0 7.07 1.55 9.42 3.97l-2.22 7.91z"/>
  <path fill="#FBBC05" d="M5.05 18.22C4.38 19.78 4 21.38 4 23.18s.38 3.4 1.05 4.96l7.98-6.19c-.21-.67-.34-1.39-.34-2.14s.13-1.47.34-2.14L5.05 18.22z"/>
  <path fill="#1B6B6B" d="M24 38.5c-6.26 0-11.57-4.22-13.46-9.91l-7.98 6.19C6.51 42.62 14.62 48 24 48c5.83 0 10.9-1.97 14.65-5.24l-7.53-5.94C29.2 38.04 26.78 38.5 24 38.5z"/>
  <path fill="#1B6B6B" d="M43.61 20.07H42V20H24v8h11.3c-1.61 4.56-5.92 7.5-11.3 7.5-6.26 0-11.57-4.22-13.46-9.91l-7.98 6.19C6.51 39.62 14.62 45 24 45c9.18 0 16.51-6.33 16.51-14.18 0-1.22-.12-2.4-.36-3.55l-.54-7.2z"/>
  <path fill="#1B6B6B" d="M43.61 20.07L44 24c0 .79-.05 1.56-.15 2.32l-7.73-5.51C36.42 19.88 35.29 19.18 34 18.75l8.17-4.85c.95 1.84 1.44 3.87 1.44 6.17z"/>
</svg>
